<svg version="1.0" xmlns="http://www.w3.org/2000/svg" preserveAspectRatio="xMidYMid meet"
    viewBox="241.12 234.43 713.88 791.45">
    <g fill="#f5deb3">
        <path
            d="M632 655.4 c-0.8 -0.1 -11.3 -1.3 -23.2 -2.5 l-21.8 -2.2 0 -3.3 c0 -3.6 0 -3.6 9.8 -5.5 7.2 -1.3 26.2 -0.6 37.7 1.4 l7 1.2 0.3 5.8 0.3 5.7 -4.3 -0.1 c-2.4 -0.1 -5 -0.3 -5.8 -0.5z" />
        <path
            d="M580 625.5 c0 -3.7 0.4 -5.5 1.3 -5.5 0.6 0 7.5 -0.7 15.2 -1.5 28 -3 35.4 -3.1 44.4 -0.5 8 2.3 8.1 2.4 8.1 5.6 0 3.1 -0.1 3.2 -5.2 3.8 -8 0.9 -50.4 3.6 -57.5 3.6 l-6.3 0 0 -5.5z" />
        <path
            d="M559.7 620.3 c-0.4 -0.3 -0.7 -2.9 -0.7 -5.7 l0 -5.1 22.8 -8.4 c21.2 -7.9 23.2 -8.4 30.7 -8.5 l8 -0.1 0.3 4.5 0.3 4.5 -14.8 5.2 c-8.1 2.8 -20.4 7.2 -27.3 9.7 -11.7 4.3 -17.8 5.5 -19.3 3.9z" />
    </g>
    <g fill="#f5deb3">
        <path
            d="M610 1024.9 c-66.3 -4.7 -118.9 -21.3 -178.2 -56.2 -23.3 -13.7 -55.8 -39.5 -75.9 -60.4 -15.5 -16 -36.4 -42 -50.7 -63.4 -8.2 -12.2 -28.8 -52.4 -35.1 -68.4 -18.5 -47.1 -27.2 -88.7 -28.8 -137.5 -1.6 -51.5 7.3 -100.5 27.7 -153 6.3 -16.2 27 -57.3 34.5 -68.5 35.6 -53.4 81.6 -98.7 128.5 -126.4 55.2 -32.7 103.3 -48.9 164 -55.3 19 -2 67.6 -1.7 88 0.5 55.9 6.1 108.8 24.4 161.2 55.6 38.4 22.8 76.1 56.6 102.7 92.1 3.9 5.2 7.1 9.8 7.1 10.2 0 0.3 -6.2 4.1 -13.7 8.3 -7.6 4.3 -19.5 11.3 -26.4 15.6 -6.9 4.3 -14.7 8.8 -17.3 10 -5.8 2.5 -12.2 2.7 -16.7 0.4 -1.9 -1 -10.1 -8.6 -18.4 -17 -27.9 -28.4 -52.3 -45 -93.2 -63.4 -48.3 -21.8 -109.1 -30.4 -162.3 -23 -55.2 7.6 -108.2 30.1 -151 63.8 -5.8 4.6 -17.3 15.1 -25.5 23.5 -42.1 42.5 -65.8 83.6 -81.9 142.1 -12.8 46.5 -12.8 105.6 0 152.3 14.9 54.3 35.8 92.1 73.5 132.9 17 18.4 31.2 29.6 65.4 51.8 21.2 13.8 24 14.9 35.7 14.6 3.3 -0.1 5.3 -1.4 15.6 -10.5 47.6 -42 75.7 -89.3 85.2 -143.5 2.2 -12.4 2.6 -27.7 1 -36.2 -1.4 -7.6 -7 -18.6 -11.8 -23.6 -12 -12.3 -31 -19.4 -59.5 -22.2 -8.6 -0.8 -12.1 -1.7 -17.4 -4.2 -7.5 -3.6 -17.4 -12.8 -24.6 -23 -5.7 -8.1 -7.7 -13.4 -7.7 -20.6 0 -9.3 0.6 -10 20.9 -28.9 15.3 -14.1 33.4 -36.7 48.1 -59.9 10 -15.9 14.9 -21.1 25.2 -26.6 10.4 -5.6 16 -10.7 18.5 -16.6 1.7 -4 2.1 -7.8 2.6 -23.8 0.8 -25.6 3.7 -42.3 8.3 -46.6 2.1 -2 2.6 -2.1 5.6 -0.8 3.5 1.4 23.3 20.8 43.1 42.2 6.5 7 12.3 12.7 12.8 12.7 0.6 0 13.2 -11.9 28.1 -26.5 15 -14.6 27.5 -26.5 27.9 -26.5 2.2 0 3.7 3.8 5.5 13.2 2.1 11.5 2.2 28 0.4 72.3 -1 24.4 -0.6 29.7 2.4 33.8 7.2 9.7 20.5 30.9 25 39.6 6.5 12.8 17.1 39.4 22 55.1 12.6 41.1 20.2 85.3 37.6 220.1 3.1 24 3.8 27 7.3 30.7 3.4 3.7 6.6 5 20.4 8.3 11.9 2.8 37.6 10 48.6 13.6 l4.9 1.5 -2.4 2.5 c-1.3 1.4 -7.3 7.1 -13.3 12.7 -29.3 26.8 -53.7 43.1 -93.7 62.6 -38.4 18.6 -77.9 30.8 -115.3 35.4 -27.8 3.5 -58 4.4 -84.5 2.5z m28.8 -374.6 c-0.3 -2.6 -0.8 -2.8 -7.3 -4 -12.7 -2.2 -24.8 -2.7 -32.1 -1.3 -3.8 0.7 -7.5 1.6 -8.2 2 -0.8 0.4 8.4 1.7 20.5 2.9 12 1.2 22.5 2.4 23.3 2.5 3.7 0.8 4.1 0.6 3.8 -2.1z m-26.3 -23.8 c12.7 -0.8 25.5 -1.8 28.5 -2.2 l5.5 -0.6 -7.5 -2.4 c-8.3 -2.6 -12.7 -2.6 -40 0.3 -7.4 0.7 -14.1 1.4 -14.7 1.4 -0.7 0 -1.3 1.1 -1.3 2.5 0 3 -1.4 3 29.5 1z m-35 -13.7 c6.1 -2.1 17.6 -6.3 25.8 -9.1 10.9 -3.8 14.7 -5.6 14.4 -6.7 -0.6 -3.4 -9.5 -1.5 -32.9 7.1 -19.7 7.3 -22.8 8.7 -22.8 10.5 0 2.7 1 3.6 2.9 2.8 0.9 -0.3 6.6 -2.4 12.6 -4.6z" />
    </g>
</svg>